<?xml version="1.0" encoding="UTF-8"?>
<svg xmlns="http://www.w3.org/2000/svg" viewBox="0 0 64 64" fill="none">
  <g stroke-width="4px" stroke="#ff0">
    <line x1="19.61" y1="59.41" x2="22.04" y2="54.41"/>
    <line x1="9.56" y1="52.07" x2="13.62" y2="48.28"/>
    <line x1="3.3" y1="41.24" x2="8.57" y2="39.42"/>
    <line x1="2" y1="28.8" x2="7.54" y2="29.46"/>
    <line x1="5.89" y1="16.91" x2="10.75" y2="19.57"/>
    <line x1="14.24" y1="7.61" x2="17.5" y2="12.11"/>
    <line x1="25.66" y1="2.58" x2="26.86" y2="7.91"/>
    <line x1="38.17" y1="2.58" x2="37.1" y2="7.91"/>
    <line x1="49.59" y1="7.61" x2="46.49" y2="12.11"/>
    <line x1="53.5" y1="19.92" x2="58.22" y2="17.22"/>
    <line x1="56.59" y1="29.67" x2="62" y2="28.93"/>
  </g>
  <rect  stroke-width="4px" stroke="#ccc" x="32.09" y="46.66" width="27.27" height="12.76"/>
  <g stroke-width="2px" stroke="#ccc">
    <polyline points="24.52 27.96 39.4 42.84 39.4 38.1"/>
    <line x1="39.4" y1="42.84" x2="34.61" y2="42.84"/>
    <polyline points="50.53 42.84 35.64 27.96 35.64 32.71"/>
    <line x1="35.64" y1="27.96" x2="40.43" y2="27.96"/>
  </g>
  <rect fill="#ccc" x="51.54" y="52.66" width="2.88" height="2.88"/>
  <rect fill="#ccc" x="46.2" y="52.66" width="2.88" height="2.88"/>
  <path fill="#ff0" d="m26.88,46.42c-5.96-2.11-10.24-7.78-10.24-14.46,0-8.48,6.88-15.36,15.36-15.36,7.68,0,14.03,5.65,15.16,13.01l6.52,6.52c.26-1.35.4-2.74.4-4.17,0-12.19-9.88-22.08-22.08-22.08S9.92,19.77,9.92,31.96c0,10.43,7.23,19.16,16.96,21.47v-7.01Z"/>
</svg>
